<svg width="16" height="16" viewBox="0 0 16 16" fill="none" xmlns="http://www.w3.org/2000/svg">
<path d="M8 16C12.4183 16 16 12.4183 16 8C16 3.58172 12.4183 0 8 0C3.58172 0 0 3.58172 0 8C0 12.4183 3.58172 16 8 16Z" fill="#00B0FF"/>
<path d="M11.4287 9.13869C12.0599 9.13869 12.5716 8.62701 12.5716 7.99583C12.5716 7.36465 12.0599 6.85297 11.4287 6.85297L9.14291 6.85297V4.56717C9.14291 3.93599 8.63124 3.42432 8.00005 3.42432C7.36887 3.42432 6.8572 3.93599 6.8572 4.56717V6.85297H4.57157C3.94039 6.85297 3.42871 7.36465 3.42871 7.99583C3.42871 8.62701 3.94039 9.13869 4.57157 9.13869H6.8572V11.4243C6.8572 12.0555 7.36887 12.5672 8.00005 12.5672C8.63124 12.5672 9.14291 12.0555 9.14291 11.4243V9.13869H11.4287Z" fill="white"/>
</svg>
