<svg width="16" height="16" viewBox="0 0 16 16" fill="none" xmlns="http://www.w3.org/2000/svg">
<path d="M0 8C0 12.4183 3.58172 16 8 16C12.4183 16 16 12.4183 16 8C16 3.58172 12.4183 0 8 0C3.58172 0 0 3.58172 0 8Z" fill="#00B0FF"/>
<path d="M9.62024 5.94997C10.0665 5.50366 10.7902 5.50366 11.2365 5.94997C11.6828 6.39628 11.6828 7.1199 11.2365 7.56621L8.71104 10.0917C8.32051 10.4822 7.68735 10.4822 7.29682 10.0917L4.7715 7.56633C4.32519 7.12002 4.32519 6.3964 4.7715 5.95009C5.21782 5.50378 5.94143 5.50378 6.38775 5.95009L8.00393 7.56627L9.62024 5.94997Z" fill="white"/>
</svg>
