<svg width="16" height="16" viewBox="0 0 16 16" fill="none" xmlns="http://www.w3.org/2000/svg">
<path d="M0 8C0 12.4183 3.58172 16 8 16C12.4183 16 16 12.4183 16 8C16 3.58172 12.4183 0 8 0C3.58172 0 0 3.58172 0 8Z" fill="#F44336"/>
<path d="M9.62055 11.2324C10.0669 11.6788 10.7905 11.6788 11.2368 11.2324C11.6831 10.7861 11.6831 10.0625 11.2368 9.6162L9.62049 7.9999L11.2368 6.3836C11.6831 5.93728 11.6831 5.21367 11.2368 4.76735C10.7905 4.32104 10.0669 4.32104 9.62055 4.76735L8.00425 6.38366L6.38807 4.76747C5.94175 4.32116 5.21814 4.32116 4.77182 4.76747C4.32551 5.21379 4.32551 5.9374 4.77182 6.38372L6.38801 7.9999L4.77182 9.61608C4.32551 10.0624 4.32551 10.786 4.77182 11.2323C5.21814 11.6786 5.94175 11.6786 6.38807 11.2323L8.00425 9.61614L9.62055 11.2324Z" fill="white"/>
</svg>
