<svg width="16" height="16" viewBox="0 0 16 16" fill="none" xmlns="http://www.w3.org/2000/svg">
<path d="M0 8C0 12.4183 3.58172 16 8 16C12.4183 16 16 12.4183 16 8C16 3.58172 12.4183 0 8 0C3.58172 0 0 3.58172 0 8Z" fill="#00B0FF"/>
<path d="M9.62055 11.2326C10.0669 11.6789 10.7905 11.6789 11.2368 11.2326C11.6831 10.7863 11.6831 10.0627 11.2368 9.61636L9.62049 8.00005L11.2368 6.38375C11.6831 5.93744 11.6831 5.21382 11.2368 4.7675C10.7905 4.32119 10.0669 4.32119 9.62055 4.7675L8.00425 6.38381L6.38807 4.76763C5.94175 4.32131 5.21814 4.32131 4.77182 4.76763C4.32551 5.21394 4.32551 5.93756 4.77182 6.38387L6.38801 8.00005L4.77182 9.61624C4.32551 10.0626 4.32551 10.7862 4.77182 11.2325C5.21814 11.6788 5.94175 11.6788 6.38807 11.2325L8.00425 9.6163L9.62055 11.2326Z" fill="white"/>
</svg>
